<?xml version="1.0" encoding="UTF-8"?>
<svg xmlns="http://www.w3.org/2000/svg" xmlns:xlink="http://www.w3.org/1999/xlink" width="810pt" height="809.999993pt" viewBox="0 0 810 809.999993" version="1.2">
<g id="surface1">
<path style=" stroke:none;fill-rule:nonzero;fill:rgb(100%,100%,100%);fill-opacity:1;" d="M 405 243 C 316.007812 243 243 316.007812 243 405 C 243 493.992188 316.007812 567 405 567 C 493.992188 567 567 493.992188 567 405 C 567 316.007812 494.855469 243 405 243 Z M 479.519531 477.144531 C 476.28125 481.894531 470.664062 483.625 465.695312 480.382812 C 427.679688 456.839844 379.945312 452.089844 323.136719 465.046875 C 317.519531 466.777344 312.550781 462.671875 311.039062 457.703125 C 309.3125 452.089844 313.414062 447.121094 318.382812 445.609375 C 379.945312 431.785156 433.511719 437.398438 475.632812 463.320312 C 481.246094 465.695312 481.894531 472.175781 479.519531 477.144531 Z M 498.960938 432.433594 C 494.855469 438.046875 487.511719 440.640625 481.894531 436.535156 C 438.265625 409.753906 371.734375 401.761719 320.761719 417.960938 C 314.28125 419.6875 306.9375 416.230469 305.425781 409.753906 C 303.695312 403.273438 307.152344 395.929688 313.632812 394.414062 C 372.601562 376.703125 445.609375 385.558594 495.71875 416.230469 C 500.6875 418.824219 503.0625 426.816406 498.960938 432.433594 Z M 500.6875 387.289062 C 448.847656 356.617188 362.230469 353.160156 312.769531 368.710938 C 304.558594 371.089844 296.566406 366.335938 294.191406 358.992188 C 291.816406 350.785156 296.566406 342.792969 303.910156 340.417969 C 361.367188 323.351562 456.191406 326.59375 516.023438 362.230469 C 523.367188 366.335938 525.742188 376.054688 521.640625 383.183594 C 517.535156 388.800781 507.816406 391.175781 500.6875 387.289062 Z M 500.6875 387.289062 "/>
</g>
</svg>
